<svg id="Layer_1" data-name="Layer 1" xmlns="http://www.w3.org/2000/svg" viewBox="0 0 43 42"><defs><style>.cls-1{fill:#b7a9d3;fill-rule:evenodd;}</style></defs><title>Logo 2 [Converted]</title><path class="cls-1" d="M288.5,381v11l-4,4,4,5v11h6v-3h-3v-9l-3-4,3-4v-8h3v-3Z" transform="translate(-284.5 -375)"/><path class="cls-1" d="M302.52,375l-3,36,5,6,6-5,3-35.63Zm5.86,34.62-6.21-.62,2.07-24.13,6.21.72Zm-4-27,.4-4.69,6.19.82-.45,4.69Z" transform="translate(-284.5 -375)"/><path class="cls-1" d="M317.5,381h6v11l4,4-4,4v12h-6v-3h3v-9l3-4-3-4v-8h-3Z" transform="translate(-284.5 -375)"/></svg>